# xmcd
#
# Track frame offsets:
# 150
# 19954
# 38647
# 54213
# 73561
# 93506
# 115293
# 135337
#
# Disc length: 1996 seconds
#
#
# Revision: 0
# Processed by: cddbd v1.5PL3 Copyright (c) Steve Scherf et al.
# Submitted via: FreeRIP 2.60 
#
DISCID=6107ca08
DTITLE=Lucy Bonilla - The Big Picture
DYEAR=2003
DGENRE=Blues
TTITLE0=Her Prayer Is Her Song
TTITLE1=Sugar Coat Me
TTITLE2=Running On Empty
TTITLE3=Little Green Dress
TTITLE4=Borrowing A Halo
TTITLE5=Good Thang
TTITLE6=Karma
TTITLE7=Let It Go
EXTD=Bluesfestradio.com
EXTT0=
EXTT1=
EXTT2=
EXTT3=
EXTT4=
EXTT5=
EXTT6=
EXTT7=
PLAYORDER=
